<?xml version="1.0" encoding="iso-8859-1"?>
<!-- Generator: Adobe Illustrator 21.0.0, SVG Export Plug-In . SVG Version: 6.00 Build 0)  -->
<svg version="1.1" id="Capa_1" xmlns="http://www.w3.org/2000/svg" xmlns:xlink="http://www.w3.org/1999/xlink" x="0px" y="0px"
	 viewBox="0 0 512 512" style="enable-background:new 0 0 512 512;" xml:space="preserve">
<path style="fill:#CCCCCC;" d="M504.92,446.326c9.44,9.44,9.44,24.74,0,34.18c-4.72,4.72-10.905,7.08-17.09,7.08
	s-12.37-2.36-17.09-7.08l-97.773-97.761l-0.012-0.012c6.499-4.615,12.695-9.847,18.52-15.672
	c5.825-5.813,11.044-12.009,15.66-18.497h0.012L504.92,446.326z"/>
<path style="fill:#ADADAD;" d="M407.626,383.336c4.72-4.72,10.905-7.08,17.09-7.08s12.37,2.36,17.09,7.08l0.223,0.107
	l-34.882-34.877h-0.012c-4.615,6.487-9.835,12.683-15.66,18.496c-5.825,5.825-12.021,11.056-18.52,15.672l0.011,0.011l33.565,33.562
	C398.227,406.811,398.574,392.387,407.626,383.336z"/>
<rect y="24.414" style="fill:#A6E2E3;" width="490.61" height="216.24"/>
<path style="fill:#7CCBCC;" d="M186.474,240.654H465.04c-6.653-22.427-18.812-43.56-36.522-61.27
	c-56.757-56.757-148.764-56.757-205.521,0C205.286,197.093,193.127,218.227,186.474,240.654z"/>
<circle style="fill:#A6E2E3;" cx="287.24" cy="264.86" r="121.19"/>
<path style="fill:#C0EAEB;" d="M166.66,277.027c6.104,61.216,57.76,109.019,120.583,109.019s114.478-47.803,120.583-109.019
	L166.66,277.027L166.66,277.027z"/>
<path style="fill:#808080;" d="M432.108,240.654c6.08,37.075-2.244,76.056-24.972,107.911c-4.615,6.487-9.835,12.684-15.66,18.497
	c-5.825,5.825-12.021,11.056-18.52,15.672c-56.757,40.493-136.068,35.261-187.001-15.672
	c-34.412-34.412-47.956-81.787-40.632-126.407c4.743-28.971,18.287-56.757,40.632-79.102c56.757-56.757,148.764-56.757,205.521,0
	C413.82,183.897,427.365,211.683,432.108,240.654z M387.255,299.632c13.207-36.912,5.034-79.765-24.53-109.329
	c-40.876-40.876-107.143-40.876-148.02,0c-29.553,29.553-37.737,72.382-24.542,109.294c5.046,14.137,13.23,27.402,24.542,38.714
	c40.876,40.876,107.143,40.876,148.02,0C374.037,326.999,382.21,313.757,387.255,299.632z"/>
<path style="fill:#FFA638;" d="M299.32,228.817l14.646-14.646c2.929-2.929,2.929-7.677,0-10.606s-7.677-2.929-10.607,0
	l-14.646,14.646l-14.646-14.646c-2.93-2.929-7.678-2.929-10.607,0s-2.929,7.678,0,10.606l14.646,14.646l-14.646,14.646
	c-2.929,2.929-2.929,7.677,0,10.606c1.465,1.465,3.384,2.197,5.304,2.197c1.919,0,3.839-0.732,5.304-2.197l14.646-14.646
	l14.646,14.646c1.465,1.464,3.385,2.197,5.304,2.197s3.839-0.732,5.304-2.197c2.929-2.929,2.929-7.678,0-10.606L299.32,228.817z"/>
<path style="fill:#4D4D4D;" d="M423.919,85.611H67.311c-4.143,0-7.5-3.358-7.5-7.5s3.357-7.5,7.5-7.5h356.608
	c4.143,0,7.5,3.358,7.5,7.5S428.062,85.611,423.919,85.611z"/>
<g>
</g>
<g>
</g>
<g>
</g>
<g>
</g>
<g>
</g>
<g>
</g>
<g>
</g>
<g>
</g>
<g>
</g>
<g>
</g>
<g>
</g>
<g>
</g>
<g>
</g>
<g>
</g>
<g>
</g>
</svg>
